<?xml version="1.0" standalone="no"?>
<!DOCTYPE svg PUBLIC "-//W3C//DTD SVG 1.1//EN" "http://www.w3.org/Graphics/SVG/1.1/DTD/svg11.dtd" >
<svg xmlns="http://www.w3.org/2000/svg" xmlns:xlink="http://www.w3.org/1999/xlink" version="1.1">
<metadata>
Created by FontForge 20170731 at Tue Dec  7 16:25:59 2010
 By Aleksey,,,
Copyright (c) 2009, Matt McInerney &#60;matt@pixelspread.com&#62;
</metadata>
<defs>
<font id="Orbitron-Regular" horiz-adv-x="828" >
  <font-face 
    font-family="Orbitron"
    font-weight="400"
    font-stretch="normal"
    units-per-em="1000"
    panose-1="2 0 0 0 0 0 0 0 0 0"
    ascent="750"
    descent="-250"
    x-height="578"
    cap-height="720"
    bbox="-187 -243 1350 1011"
    underline-thickness="50"
    underline-position="-150"
    unicode-range="U+0020-E00C"
  />
<missing-glyph horiz-adv-x="0" 
 />
    <glyph glyph-name=".notdef" horiz-adv-x="0" 
 />
    <glyph glyph-name=".null" horiz-adv-x="0" 
 />
    <glyph glyph-name="nonmarkingreturn" horiz-adv-x="333" 
 />
    <glyph glyph-name="space" unicode=" " horiz-adv-x="272" 
 />
    <glyph glyph-name="exclam" unicode="!" horiz-adv-x="220" 
d="M140 0h-82v82h82v-82zM58 203v517h82v-517h-82z" />
    <glyph glyph-name="quotedbl" unicode="&#x22;" horiz-adv-x="372" 
d="M141 720v-140h-82v140h82zM296 720v-140h-82v140h82z" />
    <glyph glyph-name="numbersign" unicode="#" horiz-adv-x="797" 
d="M773 555v-82h-121l-71 -220h159v-82h-185l-53 -171h-82l54 171h-260l-53 -171h-82l54 171h-101v82h127l71 220h-166v82h192l56 164h81l-57 -164h261l56 164h81l-57 -164h96zM241 253h259l71 220h-260z" />
    <glyph glyph-name="dollar" unicode="$" horiz-adv-x="788" 
d="M762 599v-28h-83v28q0 16 -11.5 27.5t-27.5 11.5h-201v-236h201q51 0 86.5 -35.5t35.5 -85.5v-160q0 -50 -35.5 -85.5t-86.5 -35.5h-201v-114h-82v114h-202q-50 0 -85.5 35.5t-35.5 85.5v29h82v-29q0 -16 11.5 -27.5t27.5 -11.5h202v238h-202q-50 0 -85.5 35t-35.5 86
v158q0 51 35.5 86.5t85.5 35.5h202v114h82v-114h201q51 0 86.5 -35.5t35.5 -86.5zM640 320h-201v-238h201q16 0 27.5 11.5t11.5 27.5v160q0 16 -11.5 27.5t-27.5 11.5zM357 402v236h-202q-16 0 -27.5 -11.5t-11.5 -27.5v-158q0 -16 11.5 -27.5t27.5 -11.5h202z" />
    <glyph glyph-name="percent" unicode="%" horiz-adv-x="966" 
d="M137 0v108l728 613v-107zM170 720h94q51 0 86.5 -35.5t35.5 -86.5v-84q0 -50 -35.5 -85.5t-86.5 -35.5h-94q-51 0 -86.5 35.5t-35.5 85.5v84q0 51 35.5 86.5t86.5 35.5zM148 454h138q16 0 27.5 11.5t11.5 27.5v126q0 16 -11.5 27.5t-27.5 11.5h-138q-16 0 -27.5 -11.5
t-11.5 -27.5v-126q0 -16 11.5 -27.5t27.5 -11.5zM716 326h95q50 0 85.5 -35.5t35.5 -85.5v-85q0 -50 -35.5 -85.5t-85.5 -35.5h-95q-51 0 -86 35.5t-35 85.5v85q0 50 35 85.5t86 35.5zM695 60h137q16 0 27.5 11.5t11.5 27.5v127q0 16 -11.5 27.5t-27.5 11.5h-137
q-16 0 -27.5 -11.5t-11.5 -27.5v-127q0 -16 11.5 -27.5t27.5 -11.5z" />
    <glyph glyph-name="ampersand" unicode="&#x26;" horiz-adv-x="938" 
d="M780 167l134 -79v-72l-137 77q-17 -42 -48.5 -67.5t-69.5 -25.5h-485q-50 0 -85.5 35.5t-35.5 85.5v215q0 22 27 43.5t72 21.5q-57 43 -57 96v100q0 51 35.5 86.5t85.5 35.5h411q41 0 75.5 -30.5t46.5 -71.5v-55h-83v34q0 16 -11.5 27.5t-27.5 11.5h-411
q-16 0 -27.5 -11.5t-11.5 -27.5v-139l521 -263v139h82v-166zM174 82h485q11 0 22 10t18 26l-510 257h-15q-16 0 -27.5 -11.5t-11.5 -27.5v-215q0 -16 11.5 -27.5t27.5 -11.5z" />
    <glyph glyph-name="quotesingle" unicode="'" horiz-adv-x="224" 
d="M141 720v-140h-82v140h82z" />
    <glyph glyph-name="parenleft" unicode="(" horiz-adv-x="277" 
d="M173 82h29v-82h-29q-50 0 -85.5 35.5t-35.5 85.5v477q0 51 35.5 86.5t85.5 35.5h29v-83h-29q-16 0 -27.5 -11.5t-11.5 -27.5v-477q0 -16 11.5 -27.5t27.5 -11.5z" />
    <glyph glyph-name="parenright" unicode=")" horiz-adv-x="278" 
d="M56 0v82h28q16 0 27.5 11.5t11.5 27.5v477q0 16 -11.5 27.5t-27.5 11.5h-28v83h28q50 0 86 -35.5t36 -86.5v-477q0 -50 -36 -85.5t-86 -35.5h-28z" />
    <glyph glyph-name="asterisk" unicode="*" horiz-adv-x="491" 
d="M423 614l27 -79l-146 -47l90 -125q-12 -9 -32.5 -24t-33.5 -24l-91 123l-90 -123q-15 11 -36 25.5t-31 21.5l90 126l-145 47l24 79l147 -49v154h82v-153z" />
    <glyph glyph-name="plus" unicode="+" horiz-adv-x="433" 
d="M169 490h82v-153h156v-82h-156v-155h-82v155h-152v82h152v153z" />
    <glyph glyph-name="comma" unicode="," horiz-adv-x="193" 
d="M54 82h82v-98q0 -40 -23 -71.5t-59 -43.5v213z" />
    <glyph glyph-name="hyphen" unicode="-" horiz-adv-x="517" 
d="M449 337v-82h-390v82h390z" />
    <glyph glyph-name="period" unicode="." horiz-adv-x="214" 
d="M136 82v-82h-82v82h82z" />
    <glyph glyph-name="slash" unicode="/" horiz-adv-x="521" 
d="M6 106l506 614v-104l-506 -616v106z" />
    <glyph glyph-name="zero" unicode="0" horiz-adv-x="834" 
d="M178 720h485q50 0 85.5 -35.5t35.5 -86.5v-477q0 -50 -35.5 -85.5t-85.5 -35.5h-485q-51 0 -86 35.5t-35 85.5v477q0 51 35 86.5t86 35.5zM691 637h-513q-16 0 -27.5 -11.5t-11.5 -27.5v-417zM149 82h514q16 0 27.5 11.5t11.5 27.5v417z" />
    <glyph glyph-name="one" unicode="1" horiz-adv-x="391" 
d="M1 495l189 225h112v-720h-83v628q-14 -18 -55.5 -67t-55.5 -66h-107z" />
    <glyph glyph-name="two" unicode="2" horiz-adv-x="830" 
d="M178 721h485q50 0 85.5 -35.5t35.5 -86.5v-169q0 -50 -35.5 -85.5t-85.5 -35.5h-485q-16 0 -27.5 -11.5t-11.5 -27.5v-149q0 -16 11.5 -27.5t27.5 -11.5h606v-82h-727v270q0 51 35 86t86 35h485q16 0 27.5 11.5t11.5 27.5v169q0 16 -11.5 27.5t-27.5 11.5h-485
q-16 0 -27.5 -11.5t-11.5 -27.5v-28h-82v28q0 51 35 86.5t86 35.5z" />
    <glyph glyph-name="three" unicode="3" horiz-adv-x="826" 
d="M737 396l4 -18q40 -37 40 -90v-167q0 -50 -35.5 -85.5t-85.5 -35.5h-485q-51 0 -86.5 35.5t-35.5 85.5v16h83v-16q0 -16 11.5 -27.5t27.5 -11.5h485q16 0 27.5 11.5t11.5 27.5v167q0 16 -11.5 27.5t-27.5 11.5h-469v82h437q16 0 27.5 11.5t11.5 27.5v151q0 16 -11.5 27.5
t-27.5 11.5h-453q-16 0 -27.5 -11.5t-11.5 -27.5v-26h-83v26q0 51 35.5 86.5t86.5 35.5h453q51 0 86 -35.5t35 -86.5v-151q0 -26 -12 -52z" />
    <glyph glyph-name="four" unicode="4" horiz-adv-x="730" 
d="M590 268h112v-82h-112v-186h-82v186h-502v92l492 443h92v-453zM508 590l-397 -322h397v322z" />
    <glyph glyph-name="five" unicode="5" horiz-adv-x="830" 
d="M139 599v-147q0 -16 11.5 -28t27.5 -12h485q50 0 85.5 -35t35.5 -86v-170q0 -50 -35.5 -85.5t-85.5 -35.5h-485q-51 0 -86 35.5t-35 85.5v29h82v-29q0 -16 11.5 -27.5t27.5 -11.5h485q16 0 27.5 11.5t11.5 27.5v170q0 16 -11.5 27.5t-27.5 11.5h-606v391h727v-83h-606
q-16 0 -27.5 -11.5t-11.5 -27.5z" />
    <glyph glyph-name="six" unicode="6" horiz-adv-x="820" 
d="M178 415h485q50 0 85.5 -35t35.5 -86v-173q0 -50 -35.5 -85.5t-85.5 -35.5h-485q-51 0 -86 35.5t-35 85.5v478q0 51 35 86.5t86 35.5h480v-83h-480q-16 0 -27.5 -11.5t-11.5 -27.5v-144q0 -16 11.5 -28t27.5 -12zM702 121v173q0 16 -11.5 27.5t-27.5 11.5h-524v-212
q0 -16 11.5 -27.5t27.5 -11.5h485q16 0 27.5 11.5t11.5 27.5z" />
    <glyph glyph-name="seven" unicode="7" horiz-adv-x="660" 
d="M483 638h-480v83h480q50 0 85.5 -35.5t35.5 -86.5v-599h-82v599q0 16 -11.5 27.5t-27.5 11.5z" />
    <glyph glyph-name="eight" unicode="8" horiz-adv-x="834" 
d="M784 619v-167q0 -40 -30 -81q30 -39 30 -80v-170q0 -50 -35.5 -85.5t-85.5 -35.5h-485q-51 0 -86 35.5t-35 85.5v170q0 41 30 80q-30 41 -30 81v147q0 51 35 86.5t86 35.5h485q40 0 74.5 -30.5t46.5 -71.5zM702 121v170q0 16 -11.5 27.5t-27.5 11.5h-485
q-16 0 -27.5 -11.5t-11.5 -27.5v-170q0 -16 11.5 -27.5t27.5 -11.5h485q16 0 27.5 11.5t11.5 27.5zM702 440v158q0 16 -11.5 27.5t-27.5 11.5h-485q-16 0 -27.5 -11.5t-11.5 -27.5v-158q0 -16 11.5 -27.5t27.5 -11.5h485q16 0 27.5 11.5t11.5 27.5z" />
    <glyph glyph-name="nine" unicode="9" 
d="M658 305h-485q-51 0 -86.5 35.5t-35.5 85.5v173q0 51 35.5 86.5t86.5 35.5h485q50 0 85.5 -35.5t35.5 -86.5v-478q0 -50 -35.5 -85.5t-85.5 -35.5h-485q-39 0 -71 23t-44 59h600q16 0 27.5 11.5t11.5 27.5v145q0 16 -11.5 27.5t-27.5 11.5zM134 599v-173
q0 -16 11.5 -27.5t27.5 -11.5h524v212q0 16 -11.5 27.5t-27.5 11.5h-485q-16 0 -27.5 -11.5t-11.5 -27.5z" />
    <glyph glyph-name="colon" unicode=":" horiz-adv-x="214" 
d="M54 82h82v-82h-82v82zM136 588v-82h-82v82h82z" />
    <glyph glyph-name="semicolon" unicode=";" horiz-adv-x="193" 
d="M133 588v-82h-82v82h82zM51 82h82v-98q0 -40 -23 -71.5t-59 -43.5v213z" />
    <glyph glyph-name="less" unicode="&#x3c;" horiz-adv-x="473" 
d="M87 296l320 -185v-95l-402 232v97l402 231v-95z" />
    <glyph glyph-name="equal" unicode="=" horiz-adv-x="638" 
d="M576 233v-82h-517v82h517zM576 433v-82h-517v82h517z" />
    <glyph glyph-name="greater" unicode="&#x3e;" horiz-adv-x="475" 
d="M59 14v95l320 185l-320 185v95l402 -231v-97z" />
    <glyph glyph-name="question" unicode="?" horiz-adv-x="678" 
d="M31 720l517 -1q50 0 85.5 -35.5t35.5 -86.5v-194q0 -50 -35.5 -85.5t-85.5 -35.5h-274q-16 0 -27.5 -11.5t-11.5 -27.5v-42h-82v42q0 51 35.5 86t85.5 35h274q16 0 27.5 11.5t11.5 27.5v194q0 16 -11.5 27.5t-27.5 11.5h-517v84zM235 0h-82v82h82v-82z" />
    <glyph glyph-name="at" unicode="@" horiz-adv-x="831" 
d="M373 519h95q50 0 85.5 -35.5t35.5 -85.5v-144h113v344q0 16 -11.5 27.5t-27.5 11.5h-485q-16 0 -27.5 -11.5t-11.5 -27.5v-477q0 -16 11.5 -27.5t27.5 -11.5h606v-82h-606q-51 0 -86 35.5t-35 85.5v477q0 51 35 86.5t86 35.5h485q50 0 85.5 -35.5t35.5 -86.5v-406h-411
q-51 0 -86 35.5t-35 86.5v84q0 50 35 85.5t86 35.5zM352 254h176v165q0 16 -11.5 27.5t-27.5 11.5h-137q-16 0 -27.5 -11.5t-11.5 -27.5v-126q0 -16 11.5 -27.5t27.5 -11.5z" />
    <glyph glyph-name="A" unicode="A" horiz-adv-x="836" 
d="M178 720h480q50 0 85 -35t35 -85v-600h-81v263h-558v-263h-81v600q0 50 35 85t85 35zM139 344h558v256q0 16 -11.5 27.5t-27.5 11.5h-480q-16 0 -27.5 -11.5t-11.5 -27.5v-256z" />
    <glyph glyph-name="B" unicode="B" horiz-adv-x="832" 
d="M735 394l4 -17q40 -37 40 -89v-168q0 -50 -35 -85t-85 -35h-600v720h569q50 0 85 -35t35 -85v-153q0 -27 -13 -53zM628 639h-449q-16 0 -27.5 -11.5t-11.5 -27.5v-153q0 -16 11.5 -27.5t27.5 -11.5h449q16 0 27 11.5t11 27.5v153q0 16 -11 27.5t-27 11.5zM698 120v168
q0 16 -11.5 27.5t-27.5 11.5h-480q-16 0 -27.5 -11.5t-11.5 -27.5v-168q0 -16 11.5 -27.5t27.5 -11.5h480q16 0 27.5 11.5t11.5 27.5z" />
    <glyph glyph-name="C" unicode="C" horiz-adv-x="822" 
d="M774 639h-598q-16 0 -27.5 -11.5t-11.5 -27.5v-480q0 -16 11.5 -27.5t27.5 -11.5h598v-81h-598q-50 0 -85 35t-35 85v480q0 50 35 85t85 35h598v-81z" />
    <glyph glyph-name="D" unicode="D" horiz-adv-x="834" 
d="M58 720h600q50 0 85 -35t35 -85v-480q0 -50 -35 -85t-85 -35h-600v720zM697 120v480q0 16 -11.5 27.5t-27.5 11.5h-480q-16 0 -27.5 -11.5t-11.5 -27.5v-480q0 -16 11.5 -27.5t27.5 -11.5h480q16 0 27.5 11.5t11.5 27.5z" />
    <glyph glyph-name="E" unicode="E" horiz-adv-x="766" 
d="M715 720v-81h-576v-238h463v-82h-463v-238h576v-81h-657v720h657z" />
    <glyph glyph-name="F" unicode="F" horiz-adv-x="723" 
d="M58 720h657v-81h-576v-238h463v-82h-463v-319h-81v720z" />
    <glyph glyph-name="G" unicode="G" horiz-adv-x="830" 
d="M776 600v-29h-81v29q0 16 -11.5 27.5t-27.5 11.5h-480q-16 0 -27.5 -11.5t-11.5 -27.5v-480q0 -16 11.5 -27.5t27.5 -11.5h480q16 0 27.5 11.5t11.5 27.5v178h-178v82h259v-260q0 -50 -35 -85t-85 -35h-480q-50 0 -85 35t-35 85v480q0 50 35 85t85 35h480q50 0 85 -35
t35 -85z" />
    <glyph glyph-name="H" unicode="H" horiz-adv-x="851" 
d="M713 720h82v-720h-82v319h-575v-319h-81v720h81v-319h575v319z" />
    <glyph glyph-name="I" unicode="I" horiz-adv-x="220" 
d="M57 0v720h81v-720h-81z" />
    <glyph glyph-name="J" unicode="J" horiz-adv-x="780" 
d="M643 120v600h81v-600q0 -50 -35 -85t-85 -35h-480q-50 0 -85 35t-35 85v57h81v-57q0 -16 11.5 -27.5t27.5 -11.5h480q16 0 27.5 11.5t11.5 27.5z" />
    <glyph glyph-name="K" unicode="K" horiz-adv-x="797" 
d="M639 720h104l-301 -360l302 -360h-105l-268 319h-232v-319h-82v720h82v-319h232z" />
    <glyph glyph-name="L" unicode="L" horiz-adv-x="779" 
d="M57 0v721h81v-640h639v-81h-720z" />
    <glyph glyph-name="M" unicode="M" horiz-adv-x="928" 
d="M466 364l299 356h111v-720h-81v628l-329 -391l-329 391v-628h-81v720h111z" />
    <glyph glyph-name="N" unicode="N" horiz-adv-x="832" 
d="M695 92v628h81v-720h-111l-528 628v-628h-81v720h111z" />
    <glyph glyph-name="O" unicode="O" 
d="M174 720h480q50 0 85 -35t35 -85v-480q0 -50 -35 -85t-85 -35h-480q-50 0 -85 35t-35 85v480q0 50 35 85t85 35zM174 81h480q16 0 27.5 11.5t11.5 27.5v480q0 16 -11.5 27.5t-27.5 11.5h-480q-16 0 -27.5 -11.5t-11.5 -27.5v-480q0 -16 11.5 -27.5t27.5 -11.5z" />
    <glyph glyph-name="P" unicode="P" horiz-adv-x="791" 
d="M56 719h600q50 0 85 -35t35 -85v-211q0 -50 -35 -85t-85 -35h-480q-9 0 -39 4v-272h-81v719zM695 388v211q0 16 -11.5 27.5t-27.5 11.5h-480q-16 0 -27.5 -11.5t-11.5 -27.5v-211q0 -16 11.5 -27t27.5 -11h480q16 0 27.5 11t11.5 27z" />
    <glyph glyph-name="Q" unicode="Q" horiz-adv-x="884" 
d="M770 81h98v-81h-694q-50 0 -85 35t-35 85v480q0 50 35 85t85 35h480q50 0 85 -35t35 -85v-480q0 -9 -4 -39zM174 81h480q16 0 27.5 11.5t11.5 27.5v480q0 16 -11.5 27.5t-27.5 11.5h-480q-16 0 -27.5 -11.5t-11.5 -27.5v-480q0 -16 11.5 -27.5t27.5 -11.5z" />
    <glyph glyph-name="R" unicode="R" horiz-adv-x="825" 
d="M775 599v-211q0 -50 -35 -85t-85 -35h-110l226 -268h-107l-225 268h-264q-9 0 -39 4v-272h-81v719h600q50 0 85 -35t35 -85zM175 350h480q16 0 27 11t11 27v211q0 16 -11 27.5t-27 11.5h-480q-16 0 -27.5 -11.5t-11.5 -27.5v-211q0 -16 11.5 -27t27.5 -11z" />
    <glyph glyph-name="S" unicode="S" horiz-adv-x="822" 
d="M771 600v-28h-81v28q0 16 -11.5 27.5t-27.5 11.5h-480q-16 0 -27.5 -11.5t-11.5 -27.5v-161q0 -16 11.5 -27t27.5 -11h480q50 0 85 -35t35 -85v-161q0 -50 -35 -85t-85 -35h-480q-50 0 -85 35t-35 85v28h81v-28q0 -16 11.5 -27.5t27.5 -11.5h480q16 0 27.5 11.5
t11.5 27.5v161q0 16 -11.5 27t-27.5 11h-480q-50 0 -85 35t-35 85v161q0 50 35 85t85 35h480q50 0 85 -35t35 -85z" />
    <glyph glyph-name="T" unicode="T" horiz-adv-x="759" 
d="M20 720h720v-81h-319v-639h-81v639h-320v81z" />
    <glyph glyph-name="U" unicode="U" 
d="M693 120v600h81v-600q0 -50 -35 -85t-85 -35h-480q-50 0 -85 35t-35 85v600h81v-600q0 -16 11.5 -27.5t27.5 -11.5h480q16 0 27.5 11.5t11.5 27.5z" />
    <glyph glyph-name="V" unicode="V" horiz-adv-x="1003" 
d="M499 79l368 641h95l-416 -720h-94l-417 720h95z" />
    <glyph glyph-name="W" unicode="W" horiz-adv-x="1179" 
d="M1060 720h88l-262 -720h-71l-224 615l-224 -615h-70l-262 720h86l211 -578l210 578h98l211 -578z" />
    <glyph glyph-name="X" unicode="X" horiz-adv-x="812" 
d="M651 720h104l-302 -360l303 -360h-105l-250 297l-251 -297h-104l302 360l-302 360h104l251 -297z" />
    <glyph glyph-name="Y" unicode="Y" horiz-adv-x="806" 
d="M665 720h95l-331 -449v-271h-81v271l-331 449h93l279 -352z" />
    <glyph glyph-name="Z" unicode="Z" horiz-adv-x="821" 
d="M51 639v81h720v-111l-628 -528h628v-81h-720v111l628 528h-628z" />
    <glyph glyph-name="bracketleft" unicode="[" horiz-adv-x="275" 
d="M54 0v721h150v-83h-68v-556h68v-82h-150z" />
    <glyph glyph-name="backslash" unicode="\" horiz-adv-x="520" 
d="M511 107v-106l-506 620v104z" />
    <glyph glyph-name="bracketright" unicode="]" horiz-adv-x="276" 
d="M51 638v83h150v-721h-150v82h67v556h-67z" />
    <glyph glyph-name="underscore" unicode="_" 
d="M782 0v-82h-728v82h728z" />
    <glyph glyph-name="grave" unicode="`" horiz-adv-x="213" 
d="M113 1011l34 -139h-80l-35 139h81z" />
    <glyph glyph-name="a" unicode="a" horiz-adv-x="694" 
d="M521 580q51 0 86.5 -35.5t35.5 -85.5v-459h-470q-50 0 -85.5 35.5t-35.5 85.5v210h508v128q0 16 -11.5 27.5t-27.5 11.5h-469v82h469zM560 82v167h-426v-128q0 -16 11.5 -27.5t27.5 -11.5h387z" />
    <glyph glyph-name="b" unicode="b" horiz-adv-x="667" 
d="M524 580q50 0 85.5 -35.5t35.5 -85.5v-338q0 -50 -35.5 -85.5t-85.5 -35.5h-470v770h82v-190h388zM563 121v338q0 16 -11.5 27.5t-27.5 11.5h-348q-16 0 -28 -11.5t-12 -27.5v-338q0 -16 12 -27.5t28 -11.5h348q16 0 27.5 11.5t11.5 27.5z" />
    <glyph glyph-name="c" unicode="c" horiz-adv-x="695" 
d="M172 82h470v-82h-470q-50 0 -85.5 35.5t-35.5 85.5v338q0 50 35.5 85.5t85.5 35.5h468v-82h-468q-16 0 -27.5 -11.5t-11.5 -27.5v-338q0 -16 11.5 -27.5t27.5 -11.5z" />
    <glyph glyph-name="d" unicode="d" horiz-adv-x="667" 
d="M532 770h82v-770h-469q-51 0 -86.5 35.5t-35.5 85.5v338q0 50 35.5 85.5t86.5 35.5h387v190zM145 82h348q16 0 27.5 11.5t11.5 27.5v338q0 16 -11.5 27.5t-27.5 11.5h-348q-16 0 -27.5 -11.5t-11.5 -27.5v-338q0 -16 11.5 -27.5t27.5 -11.5z" />
    <glyph glyph-name="e" unicode="e" horiz-adv-x="692" 
d="M520 580q51 0 86.5 -35.5t35.5 -85.5v-210h-509v-128q0 -16 11.5 -27.5t27.5 -11.5h470v-82h-470q-50 0 -85.5 35.5t-35.5 85.5v338q0 50 35.5 85.5t85.5 35.5h348zM133 331h426v128q0 16 -11.5 27.5t-27.5 11.5h-348q-16 0 -27.5 -11.5t-11.5 -27.5v-128z" />
    <glyph glyph-name="f" unicode="f" horiz-adv-x="407" 
d="M174 688q-16 0 -27.5 -11.5t-11.5 -27.5v-69h251v-82h-251v-498h-82v649q0 51 35 86t86 35h212v-82h-212z" />
    <glyph glyph-name="g" unicode="g" horiz-adv-x="683" 
d="M631 -107q0 -51 -35 -86.5t-86 -35.5h-362v83h362q16 0 27.5 11.5t11.5 27.5v107h-387q-50 0 -85.5 35.5t-35.5 85.5v338q0 50 35.5 85.5t85.5 35.5h348q51 0 86 -35.5t35 -85.5v-566zM162 82h348q16 0 27.5 11.5t11.5 27.5v338q0 16 -11.5 27.5t-27.5 11.5h-348
q-16 0 -27.5 -11.5t-11.5 -27.5v-338q0 -16 11.5 -27.5t27.5 -11.5z" />
    <glyph glyph-name="h" unicode="h" horiz-adv-x="668" 
d="M524 580q50 0 85.5 -35.5t35.5 -85.5v-459h-82v459q0 16 -11.5 27.5t-27.5 11.5h-348q-16 0 -28 -11.5t-12 -27.5v-459h-82v770h82v-190h388z" />
    <glyph glyph-name="i" unicode="i" horiz-adv-x="208" 
d="M52 0v580h82v-580h-82zM52 770h82v-82h-82v82z" />
    <glyph glyph-name="j" unicode="j" horiz-adv-x="239" 
d="M97 770h83v-82h-83v82zM180 580v-701q0 -51 -35.5 -86.5t-86.5 -35.5h-245v83h245q16 0 27.5 11.5t11.5 27.5v701h83z" />
    <glyph glyph-name="k" unicode="k" horiz-adv-x="646" 
d="M524 580h108l-263 -290l262 -290h-107l-228 249h-160v-249h-82v770h82v-439h160z" />
    <glyph glyph-name="l" unicode="l" horiz-adv-x="302" 
d="M52 770h82v-649q0 -16 11.5 -27.5t27.5 -11.5h98v-82h-98q-50 0 -85.5 35.5t-35.5 85.5v649z" />
    <glyph glyph-name="m" unicode="m" horiz-adv-x="978" 
d="M820 580q51 0 86 -35.5t35 -85.5v-459h-81v459q0 16 -12 27.5t-28 11.5h-241q-16 0 -27.5 -11.5t-11.5 -27.5v-459h-83v459q0 16 -11.5 27.5t-27.5 11.5h-242q-16 0 -27.5 -11.5t-11.5 -27.5v-459h-83v580h766z" />
    <glyph glyph-name="n" unicode="n" horiz-adv-x="696" 
d="M524 580q50 0 85.5 -35.5t35.5 -85.5v-459h-82v459q0 16 -11.5 27.5t-27.5 11.5h-348q-16 0 -28 -11.5t-12 -27.5v-459h-82v580h470z" />
    <glyph glyph-name="o" unicode="o" horiz-adv-x="692" 
d="M172 580h348q51 0 86.5 -35.5t35.5 -85.5v-338q0 -50 -35.5 -85.5t-86.5 -35.5h-348q-50 0 -85.5 35.5t-35.5 85.5v338q0 50 35.5 85.5t85.5 35.5zM520 498h-348q-16 0 -27.5 -11.5t-11.5 -27.5v-338q0 -16 11.5 -27.5t27.5 -11.5h348q16 0 27.5 11.5t11.5 27.5v338
q0 16 -11.5 27.5t-27.5 11.5z" />
    <glyph glyph-name="p" unicode="p" horiz-adv-x="664" 
d="M524 580q50 0 85.5 -35.5t35.5 -85.5v-338q0 -50 -35.5 -85.5t-85.5 -35.5h-388v-230h-82v810h470zM563 121v338q0 16 -11.5 27.5t-27.5 11.5h-348q-16 0 -28 -11.5t-12 -27.5v-338q0 -16 12 -27.5t28 -11.5h348q16 0 27.5 11.5t11.5 27.5z" />
    <glyph glyph-name="q" unicode="q" horiz-adv-x="664" 
d="M20 459q0 50 35.5 85.5t86.5 35.5h469v-810h-82v230h-387q-51 0 -86.5 35.5t-35.5 85.5v338zM103 459v-338q0 -16 11.5 -27.5t27.5 -11.5h348q16 0 27.5 11.5t11.5 27.5v338q0 16 -11.5 27.5t-27.5 11.5h-348q-16 0 -27.5 -11.5t-11.5 -27.5z" />
    <glyph glyph-name="r" unicode="r" horiz-adv-x="512" 
d="M173 580h326v-82h-326q-16 0 -27.5 -11.5t-11.5 -27.5v-459h-82v459q0 50 35.5 85.5t85.5 35.5z" />
    <glyph glyph-name="s" unicode="s" horiz-adv-x="686" 
d="M639 459v-8h-83v8q0 16 -11.5 27.5t-27.5 11.5h-348q-16 0 -27.5 -11.5t-11.5 -27.5v-89q0 -16 11.5 -27.5t27.5 -11.5h348q51 0 86.5 -35.5t35.5 -85.5v-89q0 -50 -35.5 -85.5t-86.5 -35.5h-348q-50 0 -85.5 35.5t-35.5 85.5v8h82v-8q0 -16 11.5 -27.5t27.5 -11.5h348
q16 0 27.5 11.5t11.5 27.5v89q0 16 -11.5 27.5t-27.5 11.5h-348q-50 0 -85.5 35.5t-35.5 85.5v89q0 50 35.5 85.5t85.5 35.5h348q51 0 86.5 -35.5t35.5 -85.5z" />
    <glyph glyph-name="t" unicode="t" horiz-adv-x="410" 
d="M386 498h-251v-377q0 -16 11.5 -27.5t27.5 -11.5h212v-82h-212q-51 0 -86 35.5t-35 85.5v649h82v-190h251v-82z" />
    <glyph glyph-name="u" unicode="u" horiz-adv-x="695" 
d="M562 580h82v-459q0 -50 -35.5 -85.5t-86.5 -35.5h-348q-50 0 -85.5 35.5t-35.5 85.5v459h82v-459q0 -16 11.5 -27.5t27.5 -11.5h348q16 0 28 11.5t12 27.5v459z" />
    <glyph glyph-name="v" unicode="v" horiz-adv-x="790" 
d="M661 580h96l-321 -580h-95l-320 580h96l272 -500z" />
    <glyph glyph-name="w" unicode="w" horiz-adv-x="1071" 
d="M957 580h89l-219 -580h-71l-216 479l-205 -479h-72l-228 580h88l176 -432l187 432h108l199 -431z" />
    <glyph glyph-name="x" unicode="x" horiz-adv-x="692" 
d="M531 580h107l-242 -285l243 -295h-108l-189 232l-188 -232h-108l242 295l-242 285h108l188 -220z" />
    <glyph glyph-name="y" unicode="y" horiz-adv-x="685" 
d="M632 -108q0 -51 -35 -86.5t-86 -35.5h-362v83h362q16 0 27.5 11.5t11.5 27.5v108h-387q-50 0 -85.5 35.5t-35.5 85.5v457h82v-457q0 -16 11.5 -27.5t27.5 -11.5h348q16 0 27.5 11.5t11.5 27.5v457h82v-686z" />
    <glyph glyph-name="z" unicode="z" horiz-adv-x="698" 
d="M54 498v82h591v-112l-501 -386h501v-82h-591v112l501 386h-501z" />
    <glyph glyph-name="braceleft" unicode="{" horiz-adv-x="289" 
d="M152 291v-170q0 -16 11.5 -27.5t27.5 -11.5h29v-82h-29q-50 0 -85.5 35.5t-35.5 85.5v163q-6 4 -23 14.5t-24 14.5v96l47 25v164q0 51 35.5 86.5t85.5 35.5h29v-83h-29q-16 0 -27.5 -11.5t-11.5 -27.5v-171l-84 -67z" />
    <glyph glyph-name="bar" unicode="|" horiz-adv-x="214" 
d="M54 -115v957h82v-957h-82z" />
    <glyph glyph-name="braceright" unicode="}" horiz-adv-x="289" 
d="M119 121v169l84 69l-84 66v173q0 16 -11.5 27.5t-27.5 11.5h-29v83h29q50 0 85.5 -35.5t35.5 -86.5v-164q8 -4 25 -14.5t21 -12.5v-95l-46 -29v-162q0 -50 -35.5 -85.5t-85.5 -35.5h-29v82h29q16 0 27.5 11.5t11.5 27.5z" />
    <glyph glyph-name="asciitilde" unicode="~" horiz-adv-x="404" 
d="M295 283h2q32 0 66 16v-41q-35 -13 -66 -13q-35 0 -102 35.5t-109 35.5q-39 0 -62 -8v37q27 9 62 9q40 0 107 -33.5t102 -37.5z" />
    <glyph glyph-name="exclamdown" unicode="&#xa1;" horiz-adv-x="210" 
d="M135 728v-83h-82v83h82zM135 0h-82v517h82v-517z" />
    <glyph glyph-name="cent" unicode="&#xa2;" horiz-adv-x="636" 
d="M621 508h-252v-426h252v-82h-252v-115h-82v115h-133q-51 0 -86 35.5t-35 85.5v348q0 51 35 86.5t86 35.5h133v135h82v-135h252v-83zM287 82v426h-133q-16 0 -27.5 -11.5t-11.5 -27.5v-348q0 -16 11.5 -27.5t27.5 -11.5h133z" />
    <glyph glyph-name="sterling" unicode="&#xa3;" horiz-adv-x="734" 
d="M691 583h-83v15q0 16 -11.5 27.5t-27.5 11.5h-303q-16 0 -27.5 -11.5t-11.5 -27.5v-193h352v-82h-352v-241h464v-82h-652v82h105v241h-105v82h105v193q0 51 35.5 86.5t86.5 35.5h303q51 0 86.5 -35.5t35.5 -86.5v-15z" />
    <glyph glyph-name="dieresis" unicode="&#xa8;" horiz-adv-x="385" 
d="M316 954v-82h-82v82h82zM137 954v-82h-83v82h83z" />
    <glyph glyph-name="degree" unicode="&#xb0;" horiz-adv-x="439" 
d="M167 728h94q51 0 86.5 -35.5t35.5 -86.5v-84q0 -50 -35.5 -85.5t-86.5 -35.5h-94q-51 0 -86.5 35.5t-35.5 85.5v84q0 51 35.5 86.5t86.5 35.5zM145 462h138q16 0 27.5 11.5t11.5 27.5v126q0 16 -11.5 27.5t-27.5 11.5h-138q-16 0 -27.5 -11.5t-11.5 -27.5v-126
q0 -16 11.5 -27.5t27.5 -11.5z" />
    <glyph glyph-name="acute" unicode="&#xb4;" horiz-adv-x="213" 
d="M33 872l35 139h79l-34 -139h-80z" />
    <glyph glyph-name="paragraph" unicode="&#xb6;" horiz-adv-x="833" 
d="M56 605q0 51 35 86.5t86 35.5h606v-727h-82v271h-138v-271h-82v271h-304q-51 0 -86 35.5t-35 85.5v213zM563 644v-291h138v291h-138zM138 605v-213q0 -16 11.5 -27.5t27.5 -11.5h304v291h-304q-16 0 -27.5 -11.5t-11.5 -27.5z" />
    <glyph glyph-name="cedilla" unicode="&#xb8;" horiz-adv-x="213" 
d="M33 -171l35 139h79l-34 -139h-80z" />
    <glyph glyph-name="questiondown" unicode="&#xbf;" horiz-adv-x="675" 
d="M656 -8l-516 8q-51 0 -86 35.5t-35 85.5v194q0 51 35 86.5t86 35.5h273q16 0 27.5 11.5t11.5 27.5v48h82v-48q0 -51 -35 -86.5t-86 -35.5h-273q-16 0 -27.5 -11.5t-11.5 -27.5v-194q0 -16 11.5 -27.5t27.5 -11.5h508q0 -29 2 -51.5t4 -30.5zM534 728v-83h-82v83h82z" />
    <glyph glyph-name="Agrave" unicode="&#xc0;" horiz-adv-x="836" 
d="M178 720h480q50 0 85 -35t35 -85v-600h-81v263h-558v-263h-81v600q0 50 35 85t85 35zM139 344h558v256q0 16 -11.5 27.5t-27.5 11.5h-480q-16 0 -27.5 -11.5t-11.5 -27.5v-256zM425 1004l34 -139h-80l-35 139h81z" />
    <glyph glyph-name="Aacute" unicode="&#xc1;" horiz-adv-x="836" 
d="M178 720h480q50 0 85 -35t35 -85v-600h-81v263h-558v-263h-81v600q0 50 35 85t85 35zM139 344h558v256q0 16 -11.5 27.5t-27.5 11.5h-480q-16 0 -27.5 -11.5t-11.5 -27.5v-256zM344 864l35 139h79l-34 -139h-80z" />
    <glyph glyph-name="Acircumflex" unicode="&#xc2;" horiz-adv-x="836" 
d="M178 720h480q50 0 85 -35t35 -85v-600h-81v263h-558v-263h-81v600q0 50 35 85t85 35zM139 344h558v256q0 16 -11.5 27.5t-27.5 11.5h-480q-16 0 -27.5 -11.5t-11.5 -27.5v-256zM337 864h-41l71 117h59l71 -117h-42l-58 85z" />
    <glyph glyph-name="Atilde" unicode="&#xc3;" horiz-adv-x="836" 
d="M178 720h480q50 0 85 -35t35 -85v-600h-81v263h-558v-263h-81v600q0 50 35 85t85 35zM139 344h558v256q0 16 -11.5 27.5t-27.5 11.5h-480q-16 0 -27.5 -11.5t-11.5 -27.5v-256zM513 917h2q30 0 66 17v-51q-38 -14 -66 -14q-35 0 -102 36t-109 36q-39 0 -62 -8v47
q27 9 62 9q40 0 107 -33.5t102 -38.5z" />
    <glyph glyph-name="Adieresis" unicode="&#xc4;" horiz-adv-x="836" 
d="M178 720h480q50 0 85 -35t35 -85v-600h-81v263h-558v-263h-81v600q0 50 35 85t85 35zM139 344h558v256q0 16 -11.5 27.5t-27.5 11.5h-480q-16 0 -27.5 -11.5t-11.5 -27.5v-256zM541 937v-82h-82v82h82zM362 937v-82h-83v82h83z" />
    <glyph glyph-name="Aring" unicode="&#xc5;" horiz-adv-x="836" 
d="M178 720h480q50 0 85 -35t35 -85v-600h-81v263h-558v-263h-81v600q0 50 35 85t85 35zM139 344h558v256q0 16 -11.5 27.5t-27.5 11.5h-480q-16 0 -27.5 -11.5t-11.5 -27.5v-256zM390 981h56q22 0 38 -15.5t16 -37.5v-54q0 -22 -16 -37.5t-38 -15.5h-56q-22 0 -38 15.5
t-16 37.5v54q0 22 16 37.5t38 15.5zM385 861h66q9 0 9 10v60q0 10 -9 10h-66q-9 0 -9 -10v-60q0 -10 9 -10z" />
    <glyph glyph-name="AE" unicode="&#xc6;" horiz-adv-x="1375" 
d="M774 639v-238h463v-82h-463v-238h576v-81h-657v263h-558v-263h-81v600q0 50 35 85t85 35h1176v-81h-576zM693 344v256q0 16 -11.5 27.5t-27.5 11.5h-480q-16 0 -27.5 -11.5t-11.5 -27.5v-256h558z" />
    <glyph glyph-name="Ccedilla" unicode="&#xc7;" horiz-adv-x="822" 
d="M774 639h-598q-16 0 -27.5 -11.5t-11.5 -27.5v-480q0 -16 11.5 -27.5t27.5 -11.5h598v-81h-323l-34 -139h-80l35 139h-196q-50 0 -85 35t-35 85v480q0 50 35 85t85 35h598v-81z" />
    <glyph glyph-name="Egrave" unicode="&#xc8;" horiz-adv-x="766" 
d="M715 720v-81h-576v-238h463v-82h-463v-238h576v-81h-657v720h657zM390 1004l34 -139h-80l-35 139h81z" />
    <glyph glyph-name="Eacute" unicode="&#xc9;" horiz-adv-x="766" 
d="M715 720v-81h-576v-238h463v-82h-463v-238h576v-81h-657v720h657zM309 865l35 139h79l-34 -139h-80z" />
    <glyph glyph-name="Ecircumflex" unicode="&#xca;" horiz-adv-x="766" 
d="M715 720v-81h-576v-238h463v-82h-463v-238h576v-81h-657v720h657zM302 864h-41l71 117h59l71 -117h-42l-58 85z" />
    <glyph glyph-name="Edieresis" unicode="&#xcb;" horiz-adv-x="766" 
d="M715 720v-81h-576v-238h463v-82h-463v-238h576v-81h-657v720h657zM506 947v-82h-82v82h82zM327 947v-82h-83v82h83z" />
    <glyph glyph-name="Igrave" unicode="&#xcc;" horiz-adv-x="220" 
d="M57 0v720h81v-720h-81zM117 1004l34 -139h-80l-35 139h81z" />
    <glyph glyph-name="Iacute" unicode="&#xcd;" horiz-adv-x="220" 
d="M57 0v720h81v-720h-81zM36 865l35 139h79l-34 -139h-80z" />
    <glyph glyph-name="Icircumflex" unicode="&#xce;" horiz-adv-x="220" 
d="M57 0v720h81v-720h-81zM29 864h-41l71 117h59l71 -117h-42l-58 85z" />
    <glyph glyph-name="Idieresis" unicode="&#xcf;" horiz-adv-x="220" 
d="M57 0v720h81v-720h-81zM233 947v-82h-82v82h82zM54 947v-82h-83v82h83z" />
    <glyph glyph-name="Ntilde" unicode="&#xd1;" horiz-adv-x="832" 
d="M695 92v628h81v-720h-111l-528 628v-628h-81v720h111zM511 917h2q30 0 66 17v-51q-38 -14 -66 -14q-35 0 -102 36t-109 36q-39 0 -62 -8v47q27 9 62 9q40 0 107 -33.5t102 -38.5z" />
    <glyph glyph-name="Ograve" unicode="&#xd2;" 
d="M174 720h480q50 0 85 -35t35 -85v-480q0 -50 -35 -85t-85 -35h-480q-50 0 -85 35t-35 85v480q0 50 35 85t85 35zM174 81h480q16 0 27.5 11.5t11.5 27.5v480q0 16 -11.5 27.5t-27.5 11.5h-480q-16 0 -27.5 -11.5t-11.5 -27.5v-480q0 -16 11.5 -27.5t27.5 -11.5zM421 1004
l34 -139h-80l-35 139h81z" />
    <glyph glyph-name="Oacute" unicode="&#xd3;" 
d="M174 720h480q50 0 85 -35t35 -85v-480q0 -50 -35 -85t-85 -35h-480q-50 0 -85 35t-35 85v480q0 50 35 85t85 35zM174 81h480q16 0 27.5 11.5t11.5 27.5v480q0 16 -11.5 27.5t-27.5 11.5h-480q-16 0 -27.5 -11.5t-11.5 -27.5v-480q0 -16 11.5 -27.5t27.5 -11.5zM340 865
l35 139h79l-34 -139h-80z" />
    <glyph glyph-name="Ocircumflex" unicode="&#xd4;" 
d="M174 720h480q50 0 85 -35t35 -85v-480q0 -50 -35 -85t-85 -35h-480q-50 0 -85 35t-35 85v480q0 50 35 85t85 35zM174 81h480q16 0 27.5 11.5t11.5 27.5v480q0 16 -11.5 27.5t-27.5 11.5h-480q-16 0 -27.5 -11.5t-11.5 -27.5v-480q0 -16 11.5 -27.5t27.5 -11.5zM333 864
h-41l71 117h59l71 -117h-42l-58 85z" />
    <glyph glyph-name="Otilde" unicode="&#xd5;" 
d="M174 720h480q50 0 85 -35t35 -85v-480q0 -50 -35 -85t-85 -35h-480q-50 0 -85 35t-35 85v480q0 50 35 85t85 35zM174 81h480q16 0 27.5 11.5t11.5 27.5v480q0 16 -11.5 27.5t-27.5 11.5h-480q-16 0 -27.5 -11.5t-11.5 -27.5v-480q0 -16 11.5 -27.5t27.5 -11.5zM509 917h2
q30 0 66 17v-51q-38 -14 -66 -14q-35 0 -102 36t-109 36q-39 0 -62 -8v47q27 9 62 9q40 0 107 -33.5t102 -38.5z" />
    <glyph glyph-name="Odieresis" unicode="&#xd6;" 
d="M174 720h480q50 0 85 -35t35 -85v-480q0 -50 -35 -85t-85 -35h-480q-50 0 -85 35t-35 85v480q0 50 35 85t85 35zM174 81h480q16 0 27.5 11.5t11.5 27.5v480q0 16 -11.5 27.5t-27.5 11.5h-480q-16 0 -27.5 -11.5t-11.5 -27.5v-480q0 -16 11.5 -27.5t27.5 -11.5zM537 947
v-82h-82v82h82zM358 947v-82h-83v82h83z" />
    <glyph glyph-name="multiply" unicode="&#xd7;" horiz-adv-x="546" 
d="M266 362l106 144h106l-158 -205l158 -206h-106l-106 144l-105 -144h-107l158 206l-159 205h108z" />
    <glyph glyph-name="Ugrave" unicode="&#xd9;" 
d="M693 120v600h81v-600q0 -50 -35 -85t-85 -35h-480q-50 0 -85 35t-35 85v600h81v-600q0 -16 11.5 -27.5t27.5 -11.5h480q16 0 27.5 11.5t11.5 27.5zM421 1004l34 -139h-80l-35 139h81z" />
    <glyph glyph-name="Uacute" unicode="&#xda;" 
d="M693 120v600h81v-600q0 -50 -35 -85t-85 -35h-480q-50 0 -85 35t-35 85v600h81v-600q0 -16 11.5 -27.5t27.5 -11.5h480q16 0 27.5 11.5t11.5 27.5zM340 865l35 139h79l-34 -139h-80z" />
    <glyph glyph-name="Ucircumflex" unicode="&#xdb;" 
d="M693 120v600h81v-600q0 -50 -35 -85t-85 -35h-480q-50 0 -85 35t-35 85v600h81v-600q0 -16 11.5 -27.5t27.5 -11.5h480q16 0 27.5 11.5t11.5 27.5zM333 864h-41l71 117h59l71 -117h-42l-58 85z" />
    <glyph glyph-name="Udieresis" unicode="&#xdc;" 
d="M693 120v600h81v-600q0 -50 -35 -85t-85 -35h-480q-50 0 -85 35t-35 85v600h81v-600q0 -16 11.5 -27.5t27.5 -11.5h480q16 0 27.5 11.5t11.5 27.5zM537 947v-82h-82v82h82zM358 947v-82h-83v82h83z" />
    <glyph glyph-name="Yacute" unicode="&#xdd;" horiz-adv-x="806" 
d="M665 720h95l-331 -449v-271h-81v271l-331 449h93l279 -352zM329 865l35 139h79l-34 -139h-80z" />
    <glyph glyph-name="germandbls" unicode="&#xdf;" horiz-adv-x="833" 
d="M784 626v-171q0 -40 -30 -81q30 -39 30 -80v-173q0 -50 -35.5 -85.5t-85.5 -35.5h-379v82h379q16 0 27.5 11.5t11.5 27.5v173q0 16 -11.5 27.5t-27.5 11.5h-379v71h379q16 0 27.5 11.5t11.5 27.5v162q0 16 -11.5 27.5t-27.5 11.5h-485q-16 0 -27.5 -11.5t-11.5 -27.5
v-605h-82v606q0 51 35 86.5t86 35.5h485q40 0 74.5 -30.5t46.5 -71.5z" />
    <glyph glyph-name="agrave" unicode="&#xe0;" horiz-adv-x="725" 
d="M521 580q51 0 86.5 -35.5t35.5 -85.5v-459h-470q-50 0 -85.5 35.5t-35.5 85.5v210h508v128q0 16 -11.5 27.5t-27.5 11.5h-469v82h469zM560 82v167h-426v-128q0 -16 11.5 -27.5t27.5 -11.5h387zM369 902l34 -139h-80l-35 139h81z" />
    <glyph glyph-name="aacute" unicode="&#xe1;" horiz-adv-x="725" 
d="M521 580q51 0 86.5 -35.5t35.5 -85.5v-459h-470q-50 0 -85.5 35.5t-35.5 85.5v210h508v128q0 16 -11.5 27.5t-27.5 11.5h-469v82h469zM560 82v167h-426v-128q0 -16 11.5 -27.5t27.5 -11.5h387zM288 763l35 139h79l-34 -139h-80z" />
    <glyph glyph-name="acircumflex" unicode="&#xe2;" horiz-adv-x="725" 
d="M521 580q51 0 86.5 -35.5t35.5 -85.5v-459h-470q-50 0 -85.5 35.5t-35.5 85.5v210h508v128q0 16 -11.5 27.5t-27.5 11.5h-469v82h469zM560 82v167h-426v-128q0 -16 11.5 -27.5t27.5 -11.5h387zM281 763h-41l71 117h59l71 -117h-42l-58 85z" />
    <glyph glyph-name="atilde" unicode="&#xe3;" horiz-adv-x="725" 
d="M521 580q51 0 86.5 -35.5t35.5 -85.5v-459h-470q-50 0 -85.5 35.5t-35.5 85.5v210h508v128q0 16 -11.5 27.5t-27.5 11.5h-469v82h469zM560 82v167h-426v-128q0 -16 11.5 -27.5t27.5 -11.5h387zM457 814h2q30 0 66 17v-51q-38 -14 -66 -14q-35 0 -102 36t-109 36
q-39 0 -62 -8v47q27 9 62 9q40 0 107 -33.5t102 -38.5z" />
    <glyph glyph-name="adieresis" unicode="&#xe4;" horiz-adv-x="725" 
d="M521 580q51 0 86.5 -35.5t35.5 -85.5v-459h-470q-50 0 -85.5 35.5t-35.5 85.5v210h508v128q0 16 -11.5 27.5t-27.5 11.5h-469v82h469zM560 82v167h-426v-128q0 -16 11.5 -27.5t27.5 -11.5h387zM485 845v-82h-82v82h82zM306 845v-82h-83v82h83z" />
    <glyph glyph-name="aring" unicode="&#xe5;" horiz-adv-x="725" 
d="M521 580q51 0 86.5 -35.5t35.5 -85.5v-459h-470q-50 0 -85.5 35.5t-35.5 85.5v210h508v128q0 16 -11.5 27.5t-27.5 11.5h-469v82h469zM560 82v167h-426v-128q0 -16 11.5 -27.5t27.5 -11.5h387zM334 878h56q22 0 38 -15.5t16 -37.5v-54q0 -22 -16 -37.5t-38 -15.5h-56
q-22 0 -38 15.5t-16 37.5v54q0 22 16 37.5t38 15.5zM329 758h66q9 0 9 10v60q0 10 -9 10h-66q-9 0 -9 -10v-60q0 -10 9 -10z" />
    <glyph glyph-name="ae" unicode="&#xe6;" horiz-adv-x="1178" 
d="M1030 580q51 0 86 -35.5t35 -85.5v-210h-508v-132q1 -15 12.5 -25t26.5 -10h469v-82h-977q-51 0 -86 35.5t-35 85.5v210h508v128q0 16 -11.5 27.5t-27.5 11.5h-469v82h977zM561 82v167h-426v-128q0 -16 11.5 -27.5t27.5 -11.5h387zM643 331h426v128q0 16 -11.5 27.5
t-27.5 11.5h-348q-16 0 -27.5 -11.5t-11.5 -27.5v-128z" />
    <glyph glyph-name="ccedilla" unicode="&#xe7;" horiz-adv-x="693" 
d="M172 82h470v-82h-256l-34 -139h-80l35 139h-135q-50 0 -85.5 35.5t-35.5 85.5v338q0 50 35.5 85.5t85.5 35.5h468v-82h-468q-16 0 -27.5 -11.5t-11.5 -27.5v-338q0 -16 11.5 -27.5t27.5 -11.5z" />
    <glyph glyph-name="egrave" unicode="&#xe8;" horiz-adv-x="638" 
d="M520 580q51 0 86.5 -35.5t35.5 -85.5v-210h-509v-128q0 -16 11.5 -27.5t27.5 -11.5h470v-82h-470q-50 0 -85.5 35.5t-35.5 85.5v338q0 50 35.5 85.5t85.5 35.5h348zM133 331h426v128q0 16 -11.5 27.5t-27.5 11.5h-348q-16 0 -27.5 -11.5t-11.5 -27.5v-128zM326 902
l34 -139h-80l-35 139h81z" />
    <glyph glyph-name="eacute" unicode="&#xe9;" horiz-adv-x="638" 
d="M520 580q51 0 86.5 -35.5t35.5 -85.5v-210h-509v-128q0 -16 11.5 -27.5t27.5 -11.5h470v-82h-470q-50 0 -85.5 35.5t-35.5 85.5v338q0 50 35.5 85.5t85.5 35.5h348zM133 331h426v128q0 16 -11.5 27.5t-27.5 11.5h-348q-16 0 -27.5 -11.5t-11.5 -27.5v-128zM245 764
l35 139h79l-34 -139h-80z" />
    <glyph glyph-name="ecircumflex" unicode="&#xea;" horiz-adv-x="638" 
d="M520 580q51 0 86.5 -35.5t35.5 -85.5v-210h-509v-128q0 -16 11.5 -27.5t27.5 -11.5h470v-82h-470q-50 0 -85.5 35.5t-35.5 85.5v338q0 50 35.5 85.5t85.5 35.5h348zM133 331h426v128q0 16 -11.5 27.5t-27.5 11.5h-348q-16 0 -27.5 -11.5t-11.5 -27.5v-128zM238 763h-41
l71 117h59l71 -117h-42l-58 85z" />
    <glyph glyph-name="edieresis" unicode="&#xeb;" horiz-adv-x="638" 
d="M520 580q51 0 86.5 -35.5t35.5 -85.5v-210h-509v-128q0 -16 11.5 -27.5t27.5 -11.5h470v-82h-470q-50 0 -85.5 35.5t-35.5 85.5v338q0 50 35.5 85.5t85.5 35.5h348zM133 331h426v128q0 16 -11.5 27.5t-27.5 11.5h-348q-16 0 -27.5 -11.5t-11.5 -27.5v-128zM442 845v-82
h-82v82h82zM263 845v-82h-83v82h83z" />
    <glyph glyph-name="igrave" unicode="&#xec;" horiz-adv-x="214" 
d="M56 0v580h82v-580h-82zM97 903l34 -139h-80l-35 139h81z" />
    <glyph glyph-name="iacute" unicode="&#xed;" horiz-adv-x="214" 
d="M51 0v580h82v-580h-82zM49 763l35 139h79l-34 -139h-80z" />
    <glyph glyph-name="icircumflex" unicode="&#xee;" horiz-adv-x="214" 
d="M51 0v580h82v-580h-82zM26 763h-41l71 117h59l71 -117h-42l-58 85z" />
    <glyph glyph-name="idieresis" unicode="&#xef;" horiz-adv-x="214" 
d="M55 0v580h82v-580h-82zM230 847v-82h-82v82h82zM51 847v-82h-83v82h83z" />
    <glyph glyph-name="ntilde" unicode="&#xf1;" horiz-adv-x="708" 
d="M524 580q50 0 85.5 -35.5t35.5 -85.5v-459h-82v459q0 16 -11.5 27.5t-27.5 11.5h-348q-16 0 -28 -11.5t-12 -27.5v-459h-82v580h470zM449 813h2q30 0 66 17v-51q-38 -14 -66 -14q-35 0 -102 36t-109 36q-39 0 -62 -8v47q27 9 62 9q40 0 107 -33.5t102 -38.5z" />
    <glyph glyph-name="ograve" unicode="&#xf2;" horiz-adv-x="692" 
d="M172 580h348q51 0 86.5 -35.5t35.5 -85.5v-338q0 -50 -35.5 -85.5t-86.5 -35.5h-348q-50 0 -85.5 35.5t-35.5 85.5v338q0 50 35.5 85.5t85.5 35.5zM520 498h-348q-16 0 -27.5 -11.5t-11.5 -27.5v-338q0 -16 11.5 -27.5t27.5 -11.5h348q16 0 27.5 11.5t11.5 27.5v338
q0 16 -11.5 27.5t-27.5 11.5zM353 903l34 -139h-80l-35 139h81z" />
    <glyph glyph-name="oacute" unicode="&#xf3;" horiz-adv-x="692" 
d="M172 580h348q51 0 86.5 -35.5t35.5 -85.5v-338q0 -50 -35.5 -85.5t-86.5 -35.5h-348q-50 0 -85.5 35.5t-35.5 85.5v338q0 50 35.5 85.5t85.5 35.5zM520 498h-348q-16 0 -27.5 -11.5t-11.5 -27.5v-338q0 -16 11.5 -27.5t27.5 -11.5h348q16 0 27.5 11.5t11.5 27.5v338
q0 16 -11.5 27.5t-27.5 11.5zM272 764l35 139h79l-34 -139h-80z" />
    <glyph glyph-name="ocircumflex" unicode="&#xf4;" horiz-adv-x="692" 
d="M172 580h348q51 0 86.5 -35.5t35.5 -85.5v-338q0 -50 -35.5 -85.5t-86.5 -35.5h-348q-50 0 -85.5 35.5t-35.5 85.5v338q0 50 35.5 85.5t85.5 35.5zM520 498h-348q-16 0 -27.5 -11.5t-11.5 -27.5v-338q0 -16 11.5 -27.5t27.5 -11.5h348q16 0 27.5 11.5t11.5 27.5v338
q0 16 -11.5 27.5t-27.5 11.5zM265 763h-41l71 117h59l71 -117h-42l-58 85z" />
    <glyph glyph-name="otilde" unicode="&#xf5;" horiz-adv-x="692" 
d="M172 580h348q51 0 86.5 -35.5t35.5 -85.5v-338q0 -50 -35.5 -85.5t-86.5 -35.5h-348q-50 0 -85.5 35.5t-35.5 85.5v338q0 50 35.5 85.5t85.5 35.5zM520 498h-348q-16 0 -27.5 -11.5t-11.5 -27.5v-338q0 -16 11.5 -27.5t27.5 -11.5h348q16 0 27.5 11.5t11.5 27.5v338
q0 16 -11.5 27.5t-27.5 11.5zM441 813h2q30 0 66 17v-51q-38 -14 -66 -14q-35 0 -102 36t-109 36q-39 0 -62 -8v47q27 9 62 9q40 0 107 -33.5t102 -38.5z" />
    <glyph glyph-name="odieresis" unicode="&#xf6;" horiz-adv-x="692" 
d="M172 580h348q51 0 86.5 -35.5t35.5 -85.5v-338q0 -50 -35.5 -85.5t-86.5 -35.5h-348q-50 0 -85.5 35.5t-35.5 85.5v338q0 50 35.5 85.5t85.5 35.5zM520 498h-348q-16 0 -27.5 -11.5t-11.5 -27.5v-338q0 -16 11.5 -27.5t27.5 -11.5h348q16 0 27.5 11.5t11.5 27.5v338
q0 16 -11.5 27.5t-27.5 11.5zM469 847v-82h-82v82h82zM290 847v-82h-83v82h83z" />
    <glyph glyph-name="divide" unicode="&#xf7;" horiz-adv-x="508" 
d="M492 337v-82h-474v82h474zM215 83h82v-82h-82v82zM297 579v-82h-82v82h82z" />
    <glyph glyph-name="ugrave" unicode="&#xf9;" horiz-adv-x="695" 
d="M562 580h82v-459q0 -50 -35.5 -85.5t-86.5 -35.5h-348q-50 0 -85.5 35.5t-35.5 85.5v459h82v-459q0 -16 11.5 -27.5t27.5 -11.5h348q16 0 28 11.5t12 27.5v459zM354 903l34 -139h-80l-35 139h81z" />
    <glyph glyph-name="uacute" unicode="&#xfa;" horiz-adv-x="695" 
d="M562 580h82v-459q0 -50 -35.5 -85.5t-86.5 -35.5h-348q-50 0 -85.5 35.5t-35.5 85.5v459h82v-459q0 -16 11.5 -27.5t27.5 -11.5h348q16 0 28 11.5t12 27.5v459zM273 764l35 139h79l-34 -139h-80z" />
    <glyph glyph-name="ucircumflex" unicode="&#xfb;" horiz-adv-x="695" 
d="M562 580h82v-459q0 -50 -35.5 -85.5t-86.5 -35.5h-348q-50 0 -85.5 35.5t-35.5 85.5v459h82v-459q0 -16 11.5 -27.5t27.5 -11.5h348q16 0 28 11.5t12 27.5v459zM266 764h-41l71 117h59l71 -117h-42l-58 85z" />
    <glyph glyph-name="udieresis" unicode="&#xfc;" horiz-adv-x="695" 
d="M562 580h82v-459q0 -50 -35.5 -85.5t-86.5 -35.5h-348q-50 0 -85.5 35.5t-35.5 85.5v459h82v-459q0 -16 11.5 -27.5t27.5 -11.5h348q16 0 28 11.5t12 27.5v459zM470 845v-82h-82v82h82zM291 845v-82h-83v82h83z" />
    <glyph glyph-name="yacute" unicode="&#xfd;" horiz-adv-x="688" 
d="M632 -108q0 -51 -35 -86.5t-86 -35.5h-362v83h362q16 0 27.5 11.5t11.5 27.5v108h-387q-50 0 -85.5 35.5t-35.5 85.5v457h82v-457q0 -16 11.5 -27.5t27.5 -11.5h348q16 0 27.5 11.5t11.5 27.5v457h82v-686zM270 764l35 139h79l-34 -139h-80z" />
    <glyph glyph-name="ydieresis" unicode="&#xff;" horiz-adv-x="688" 
d="M632 -108q0 -51 -35 -86.5t-86 -35.5h-362v83h362q16 0 27.5 11.5t11.5 27.5v108h-387q-50 0 -85.5 35.5t-35.5 85.5v457h82v-457q0 -16 11.5 -27.5t27.5 -11.5h348q16 0 27.5 11.5t11.5 27.5v457h82v-686zM467 847v-82h-82v82h82zM288 847v-82h-83v82h83z" />
    <glyph glyph-name="dotlessi" unicode="&#x131;" horiz-adv-x="214" 
d="M52 0v580h82v-580h-82z" />
    <glyph glyph-name="OE" unicode="&#x152;" horiz-adv-x="1374" 
d="M773 639v-238h463v-82h-463v-238h576v-81h-1176q-50 0 -85 35t-35 85v480q0 50 35 85t85 35h1176v-81h-576zM653 81q16 0 27.5 11.5t11.5 27.5v480q0 16 -11.5 27.5t-27.5 11.5h-480q-16 0 -27.5 -11.5t-11.5 -27.5v-480q0 -16 11.5 -27.5t27.5 -11.5h480z" />
    <glyph glyph-name="oe" unicode="&#x153;" horiz-adv-x="1177" 
d="M1150 249h-508v-128q0 -16 11.5 -27.5t27.5 -11.5h469v-82h-977q-51 0 -86 35.5t-35 85.5v338q0 50 35 85.5t86 35.5h856q51 0 86 -35.5t35 -85.5v-210zM681 498q-16 0 -27.5 -11.5t-11.5 -27.5v-128h426v128q0 16 -11.5 27.5t-27.5 11.5h-348zM521 82q16 0 27.5 11.5
t11.5 27.5v338q0 16 -11.5 27.5t-27.5 11.5h-348q-16 0 -27.5 -11.5t-11.5 -27.5v-338q0 -16 11.5 -27.5t27.5 -11.5h348z" />
    <glyph glyph-name="Scaron" unicode="&#x160;" horiz-adv-x="822" 
d="M771 600v-28h-81v28q0 16 -11.5 27.5t-27.5 11.5h-480q-16 0 -27.5 -11.5t-11.5 -27.5v-161q0 -16 11.5 -27t27.5 -11h480q50 0 85 -35t35 -85v-161q0 -50 -35 -85t-85 -35h-480q-50 0 -85 35t-35 85v28h81v-28q0 -16 11.5 -27.5t27.5 -11.5h480q16 0 27.5 11.5
t11.5 27.5v161q0 16 -11.5 27t-27.5 11h-480q-50 0 -85 35t-35 85v161q0 50 35 85t85 35h480q50 0 85 -35t35 -85zM289 981h42l60 -85l58 85h41l-70 -117h-59z" />
    <glyph glyph-name="scaron" unicode="&#x161;" horiz-adv-x="687" 
d="M639 459v-8h-83v8q0 16 -11.5 27.5t-27.5 11.5h-348q-16 0 -27.5 -11.5t-11.5 -27.5v-89q0 -16 11.5 -27.5t27.5 -11.5h348q51 0 86.5 -35.5t35.5 -85.5v-89q0 -50 -35.5 -85.5t-86.5 -35.5h-348q-50 0 -85.5 35.5t-35.5 85.5v8h82v-8q0 -16 11.5 -27.5t27.5 -11.5h348
q16 0 27.5 11.5t11.5 27.5v89q0 16 -11.5 27.5t-27.5 11.5h-348q-50 0 -85.5 35.5t-35.5 85.5v89q0 50 35.5 85.5t85.5 35.5h348q51 0 86.5 -35.5t35.5 -85.5zM221 880h42l60 -85l58 85h41l-70 -117h-59z" />
    <glyph glyph-name="Ydieresis" unicode="&#x178;" horiz-adv-x="806" 
d="M665 720h95l-331 -449v-271h-81v271l-331 449h93l279 -352zM526 947v-82h-82v82h82zM347 947v-82h-83v82h83z" />
    <glyph glyph-name="Zcaron" unicode="&#x17d;" horiz-adv-x="821" 
d="M51 639v81h720v-111l-628 -528h628v-81h-720v111l628 528h-628zM288 981h42l60 -85l58 85h41l-70 -117h-59z" />
    <glyph glyph-name="zcaron" unicode="&#x17e;" horiz-adv-x="698" 
d="M54 498v82h591v-112l-501 -386h501v-82h-591v112l501 386h-501zM227 883h42l60 -85l58 85h41l-70 -117h-59z" />
    <glyph glyph-name="circumflex" unicode="&#x2c6;" horiz-adv-x="300" 
d="M69 871h-41l71 117h59l71 -117h-42l-58 85z" />
    <glyph glyph-name="caron" unicode="&#x2c7;" horiz-adv-x="297" 
d="M27 988h42l60 -85l58 85h41l-70 -117h-59z" />
    <glyph glyph-name="breve" unicode="&#x2d8;" horiz-adv-x="287" 
d="M194 939h31q-1 -27 -17.5 -47t-47.5 -20h-55q-30 0 -47 20t-18 47h32q0 -34 21 -34h80q21 0 21 28v6z" />
    <glyph glyph-name="dotaccent" unicode="&#x2d9;" horiz-adv-x="233" 
d="M86 989h38q17 0 29 -11.5t12 -28.5v-36q0 -17 -12 -28.5t-29 -11.5h-38q-17 0 -29 11.5t-12 28.5v36q0 17 12 28.5t29 11.5z" />
    <glyph glyph-name="ring" unicode="&#x2da;" horiz-adv-x="233" 
d="M89 988h56q22 0 38 -15.5t16 -37.5v-54q0 -22 -16 -37.5t-38 -15.5h-56q-22 0 -38 15.5t-16 37.5v54q0 22 16 37.5t38 15.5zM84 868h66q9 0 9 10v60q0 10 -9 10h-66q-9 0 -9 -10v-60q0 -10 9 -10z" />
    <glyph glyph-name="tilde" unicode="&#x2dc;" horiz-adv-x="403" 
d="M294 924h2q30 0 66 17v-51q-38 -14 -66 -14q-35 0 -102 36t-109 36q-39 0 -62 -8v47q27 9 62 9q40 0 107 -33.5t102 -38.5z" />
    <glyph glyph-name="endash" unicode="&#x2013;" horiz-adv-x="708" 
d="M655 336v-82h-601v82h601z" />
    <glyph glyph-name="emdash" unicode="&#x2014;" horiz-adv-x="822" 
d="M775 336v-82h-721v82h721z" />
    <glyph glyph-name="quoteleft" unicode="&#x2018;" horiz-adv-x="168" 
d="M116 503h-83v98q0 40 23 72t60 43v-213z" />
    <glyph glyph-name="quoteright" unicode="&#x2019;" horiz-adv-x="166" 
d="M54 721h82v-98q0 -40 -23 -72t-59 -43v213z" />
    <glyph glyph-name="quotedblleft" unicode="&#x201c;" horiz-adv-x="363" 
d="M130 502h-83v98q0 40 23 72t60 43v-213zM310 502h-82v98q0 40 22.5 72t59.5 43v-213z" />
    <glyph glyph-name="quotedblright" unicode="&#x201d;" horiz-adv-x="363" 
d="M235 721h82v-98q0 -40 -23 -72t-59 -43v213zM54 721h83v-98q0 -40 -23 -72t-60 -43v213z" />
    <glyph glyph-name="bullet" unicode="&#x2022;" horiz-adv-x="371" 
d="M172 403h25q29 0 29 -29v-21q0 -28 -29 -28h-25q-28 0 -28 28v21q0 29 28 29z" />
    <glyph glyph-name="ellipsis" unicode="&#x2026;" horiz-adv-x="574" 
d="M136 82v-82h-82v82h82zM514 82v-82h-83v82h83zM325 82v-82h-82v82h82z" />
    <glyph glyph-name="Euro" unicode="&#x20ac;" horiz-adv-x="799" 
d="M262 82h499v-82h-499q-51 0 -86.5 35.5t-35.5 85.5v109h-105v82h105v103h-105v83h105v101q0 51 35.5 86.5t86.5 35.5h499v-83h-499q-16 0 -27.5 -11.5t-11.5 -27.5v-101h424v-83h-424v-103h424v-82h-424v-109q0 -16 11.5 -27.5t27.5 -11.5z" />
    <glyph glyph-name="minus" unicode="&#x2212;" horiz-adv-x="517" 
d="M449 337v-82h-390v82h390z" />
    <glyph glyph-name="uniE000" unicode="&#xe000;" horiz-adv-x="0" 
 />
    <glyph glyph-name="seven.alt" unicode="&#xe002;" horiz-adv-x="771" 
d="M46 -11l4 11h4zM50 721h723l-611 -721h-108l543 638h-547v83z" />
    <glyph glyph-name="nine.alt" unicode="&#xe003;" horiz-adv-x="784" 
d="M134 719h485q50 0 85.5 -35.5t35.5 -86.5v-597h-82v264q0 16 -11.5 27.5t-27.5 11.5h-485q-51 0 -86.5 35.5t-35.5 85.5v173q0 51 35.5 86.5t86.5 35.5zM658 385v212q0 16 -11.5 27.5t-27.5 11.5h-485q-16 0 -27.5 -11.5t-11.5 -27.5v-173q0 -16 11.5 -27.5t27.5 -11.5
h524z" />
    <glyph glyph-name="two.alt" unicode="&#xe005;" horiz-adv-x="815" 
d="M775 488l-106 -55l-537 -273v-78h643v-82h-606q-42 0 -75.5 27.5t-43.5 67.5q0 19 -0.5 58t-0.5 58l644 327v100h-522q-16 0 -27.5 -11.5t-11.5 -27.5v-42h-83v42q0 51 35.5 86.5t86.5 35.5h485q40 0 73.5 -30.5t45.5 -71.5v-131z" />
    <glyph glyph-name="question.alt" unicode="&#xe006;" horiz-adv-x="667" 
d="M146 720h380q50 0 85.5 -35.5t35.5 -86.5v-194q0 -50 -35.5 -85.5t-85.5 -35.5h-200q-16 0 -27.5 -11.5t-11.5 -27.5v-93h-83v93q0 51 35.5 86t86.5 35h200q16 0 27.5 11.5t11.5 27.5v194q0 16 -11.5 27.5t-27.5 11.5h-417v-114h-82v96q11 41 44.5 71t74.5 30zM287 0h-83
v82h83v-82z" />
    <glyph glyph-name="four.alt" unicode="&#xe007;" horiz-adv-x="723" 
d="M593 268h112v-82h-112v-186h-82v186h-502v93l377 442h91v-31l-382 -422h416v157h82v-157z" />
    <glyph glyph-name="W.alt2" unicode="&#xe008;" horiz-adv-x="1168" 
d="M612 0l-612 720h108l533 -627v349l-240 278h106l534 -627v627h82v-720h-111l-288 343v-343h-112z" />
    <glyph glyph-name="W.alt" unicode="&#xe009;" horiz-adv-x="1171" 
d="M1065 720h106l-610 -720h-112v343l-288 -343h-112v720h82v-627l534 627h105l-239 -278v-349z" />
    <glyph glyph-name="V.alt" unicode="&#xe00a;" horiz-adv-x="774" 
d="M54 721h83v-628l533 628h107l-611 -721h-112v721z" />
    <glyph glyph-name="A.alt" unicode="&#xe00b;" horiz-adv-x="774" 
d="M111 0h-107l612 721h112v-721h-83v202h-364zM645 629l-294 -344h294v344z" />
    <glyph glyph-name="A.alt2" unicode="&#xe00c;" horiz-adv-x="774" 
d="M54 721h112l612 -721h-108l-171 202h-362v-202h-83v721zM137 629v-344h295z" />
    <glyph glyph-name="CR" horiz-adv-x="401" 
 />
    <glyph glyph-name="A.alt3" horiz-adv-x="827" 
d="M837 0h-95l-105 183h-464l-106 -183h-95l386 720h94zM405 644l-185 -380h368z" />
    <glyph glyph-name="C.alt" horiz-adv-x="822" 
d="M770 620l3 -94h-81v113h-520q-16 0 -27.5 -11.5t-11.5 -27.5v-480q0 -16 11.5 -27.5t27.5 -11.5h520v113h78v-94q-12 -40 -45.5 -70t-72.5 -30h-480q-50 0 -85 35t-35 85v480q0 50 35 85t85 35h480q39 0 72.5 -30t45.5 -70z" />
    <glyph glyph-name="I.alt" horiz-adv-x="818" 
d="M769 720v-81h-319v-558h319v-81h-720v81h319v558h-319v81h720z" />
    <glyph glyph-name="J.alt" horiz-adv-x="645" 
d="M506 120v600h82v-600q0 -50 -35 -85t-85 -35h-465v81h465q16 0 27 11.5t11 27.5z" />
    <glyph glyph-name="K.alt" horiz-adv-x="829" 
d="M694 436v284h81v-263q0 -35 -40.5 -67.5t-98.5 -32.5q58 0 98 -33t40 -67v-257h-81v278q0 15 -11.5 26.5t-27.5 11.5h-480q-16 0 -27.5 -11.5t-11.5 -26.5v-278h-81v720h81v-284q0 -16 11.5 -27t27.5 -11h481q16 0 27.5 11t11.5 27z" />
    <glyph glyph-name="M.alt" horiz-adv-x="1155" 
d="M997 720q50 0 85 -35t35 -85v-600h-82v600q0 16 -11 27.5t-27 11.5h-383v-639h-82v600q0 16 -11 27.5t-27 11.5h-358v-639h-82v720h943z" />
    <glyph glyph-name="N.alt" horiz-adv-x="827" 
d="M135 0h-81v720h600q50 0 85 -35t35 -85v-600h-81v600q0 16 -11.5 27.5t-27.5 11.5h-519v-639z" />
    <glyph glyph-name="O.alt" horiz-adv-x="824" 
d="M172 720h480q50 0 85 -35t35 -85v-480q0 -50 -35 -85t-85 -35h-480q-50 0 -85 35t-35 85v480q0 50 35 85t85 35zM691 120v480q0 16 -11.5 27.5t-27.5 11.5h-480q-16 0 -27.5 -11.5t-11.5 -27.5v-480q0 -16 11.5 -27.5t27.5 -11.5h480q16 0 27.5 11.5t11.5 27.5zM453 319
h-82v82h82v-82z" />
    <glyph glyph-name="Q.alt" horiz-adv-x="868" 
d="M654 720q50 0 85 -35t35 -85v-480q0 -50 -35 -85t-85 -35h-199v-113h-82v113h-199q-50 0 -85 35t-35 85v480q0 50 35 85t85 35h480zM693 120v480q0 16 -11.5 27.5t-27.5 11.5h-480q-16 0 -27.5 -11.5t-11.5 -27.5v-480q0 -16 11.5 -27.5t27.5 -11.5h480q16 0 27.5 11.5
t11.5 27.5z" />
    <glyph glyph-name="R.alt" horiz-adv-x="826" 
d="M774 599v-211q0 -26 -21.5 -45t-45 -26.5t-40.5 -7.5q31 0 69 -20.5t38 -58.5v-230h-81v230q0 15 -11.5 26.5t-27.5 11.5h-480q-16 0 -27.5 -11.5t-11.5 -26.5v-230h-81v720l600 -1q50 0 85 -35t35 -85zM654 638h-480q-16 0 -27.5 -11.5t-11.5 -27.5v-211q0 -16 11.5 -27
t27.5 -11h480q16 0 27.5 11t11.5 27v211q0 16 -11.5 27.5t-27.5 11.5z" />
    <glyph glyph-name="S.alt" horiz-adv-x="812" 
d="M166 401h480q50 0 85 -35t35 -85v-161q0 -50 -35 -85t-85 -35h-600v81h600q16 0 27 11.5t11 27.5v161q0 16 -11 27t-27 11h-480q-50 0 -85 35t-35 85v161q0 50 35 85t85 35h600v-81h-600q-16 0 -27.5 -11.5t-11.5 -27.5v-161q0 -16 11.5 -27t27.5 -11z" />
    <glyph glyph-name="V.alt2" horiz-adv-x="774" 
d="M635 92v628h81v-720h-111l-605 720h107z" />
    <glyph glyph-name="V.alt3" horiz-adv-x="827" 
d="M692 720h81v-720h-600q-50 0 -85 35t-35 85v600h81v-600q0 -16 11.5 -27.5t27.5 -11.5h519v639z" />
    <glyph glyph-name="W.alt3" horiz-adv-x="1028" 
d="M518 421l-354 -421h-110v720h81v-628l383 457l383 -457v628h82v-720h-111z" />
    <glyph glyph-name="W.alt4" horiz-adv-x="1155" 
d="M173 0q-50 0 -85 35t-35 85v600h82v-600q0 -16 11.5 -27.5t26.5 -11.5h383v639h82v-600q0 -16 11 -27.5t27 -11.5h358v639h82v-720h-943z" />
    <glyph glyph-name="X.alt" horiz-adv-x="829" 
d="M694 720h81v-263q0 -38 -42.5 -69t-96.5 -31q54 0 96 -31t42 -69v-257h-81v278q0 15 -11.5 26.5t-27.5 11.5h-479q-16 0 -27.5 -11.5t-11.5 -26.5v-278h-81v257q0 39 42 69.5t96 30.5q-54 0 -96.5 30.5t-42.5 69.5v263h81v-284q0 -16 11.5 -27t27.5 -11h481q16 0 27.5 11
t11.5 27v284z" />
    <glyph glyph-name="Y.alt" horiz-adv-x="824" 
d="M690 720h81v-600q0 -50 -35 -85t-85 -35h-600v81h600q16 0 27.5 11.5t11.5 27.5v161q0 16 -11.5 27t-27.5 11h-480q-50 0 -85 35t-35 85v281h81v-281q0 -16 11.5 -27t27.5 -11h519v319z" />
    <glyph glyph-name="Z.alt" horiz-adv-x="818" 
d="M169 401h480q16 0 27 11t11 27v161q0 16 -11 27.5t-27 11.5h-600v81h600q50 0 85 -35t35 -85v-161q0 -50 -35 -85t-85 -35h-480q-16 0 -27.5 -11t-11.5 -27v-161q0 -16 11.5 -27.5t27.5 -11.5h600v-81h-600q-50 0 -85 35t-35 85v161q0 50 35 85t85 35z" />
    <glyph glyph-name="a.alt" horiz-adv-x="693" 
d="M520 580q51 0 86.5 -35.5t35.5 -85.5v-459h-470q-50 0 -85.5 35.5t-35.5 85.5v338q0 50 35.5 85.5t85.5 35.5h348zM172 82h387v377q0 16 -11.5 27.5t-27.5 11.5h-348q-16 0 -27.5 -11.5t-11.5 -27.5v-338q0 -16 11.5 -27.5t27.5 -11.5z" />
    <glyph glyph-name="a.sc" horiz-adv-x="725" 
d="M174 580h380q50 0 85.5 -35.5t35.5 -85.5v-459h-82v160h-458v-160h-82v459q0 50 35.5 85.5t85.5 35.5zM135 243h458v216q0 16 -11.5 27.5t-27.5 11.5h-380q-16 0 -27.5 -11.5t-11.5 -27.5v-216z" />
    <glyph glyph-name="b.sc" horiz-adv-x="700" 
d="M611 314l4 -18q40 -37 40 -89v-86q0 -50 -35.5 -85.5t-85.5 -35.5h-480v581h448q51 0 86.5 -35.5t35.5 -85.5v-93q0 -23 -13 -53zM502 499h-327q-16 0 -27.5 -11.5t-11.5 -27.5v-93q0 -16 11.5 -27.5t27.5 -11.5h327q16 0 27.5 11.5t11.5 27.5v93q0 16 -11.5 27.5
t-27.5 11.5zM573 121v86q0 16 -11.5 27.5t-27.5 11.5h-359q-16 0 -27.5 -11.5t-11.5 -27.5v-86q0 -16 11.5 -27.5t27.5 -11.5h359q16 0 27.5 11.5t11.5 27.5z" />
    <glyph glyph-name="c.sc" horiz-adv-x="693" 
d="M640 499h-468q-16 0 -27.5 -11.5t-11.5 -27.5v-339q0 -16 11.5 -27.5t27.5 -11.5h468v-82h-468q-50 0 -85.5 35.5t-35.5 85.5v339q0 50 35.5 85.5t85.5 35.5h468v-82z" />
    <glyph glyph-name="d.sc" horiz-adv-x="705" 
d="M54 581h480q50 0 85.5 -35.5t35.5 -85.5v-339q0 -50 -35.5 -85.5t-85.5 -35.5h-480v581zM573 121v339q0 16 -11.5 27.5t-27.5 11.5h-359q-16 0 -27.5 -11.5t-11.5 -27.5v-339q0 -16 11.5 -27.5t27.5 -11.5h359q16 0 27.5 11.5t11.5 27.5z" />
    <glyph glyph-name="e.sc" horiz-adv-x="638" 
d="M581 581v-82h-445v-168h331v-82h-331v-167h445v-82h-527v581h527z" />
    <glyph glyph-name="f.sc" horiz-adv-x="591" 
d="M54 581h527v-82h-445v-168h331v-82h-331v-249h-82v581z" />
    <glyph glyph-name="g.sc" horiz-adv-x="690" 
d="M642 460v-14h-83v14q0 16 -11.5 27.5t-27.5 11.5h-348q-16 0 -27.5 -11.5t-11.5 -27.5v-339q0 -16 11.5 -27.5t27.5 -11.5h348q16 0 27.5 11.5t11.5 27.5v96h-179v82h262v-178q0 -50 -35.5 -85.5t-86.5 -35.5h-348q-50 0 -85.5 35.5t-35.5 85.5v339q0 50 35.5 85.5
t85.5 35.5h348q51 0 86.5 -35.5t35.5 -85.5z" />
    <glyph glyph-name="h.sc" horiz-adv-x="715" 
d="M580 580h82v-580h-82v249h-444v-249h-82v580h82v-249h444v249z" />
    <glyph glyph-name="i.sc" horiz-adv-x="214" 
d="M54 0v580h82v-580h-82z" />
    <glyph glyph-name="j.sc" horiz-adv-x="657" 
d="M524 121v459h82v-459q0 -50 -35.5 -85.5t-85.5 -35.5h-359q-50 0 -85.5 35.5t-35.5 85.5v48h82v-48q0 -16 11.5 -27.5t27.5 -11.5h359q16 0 27.5 11.5t11.5 27.5z" />
    <glyph glyph-name="k.alt" horiz-adv-x="669" 
d="M645 580v-210q0 -40 -29 -80q29 -40 29 -80v-210h-82v210q0 16 -11.5 27.5t-27.5 11.5h-388v-249h-82v770h82v-439h388q16 0 27.5 11.5t11.5 27.5v210h82z" />
    <glyph glyph-name="k.sc" horiz-adv-x="682" 
d="M524 580h108l-263 -290l262 -290h-107l-228 249h-160v-249h-82v580h82v-249h160z" />
    <glyph glyph-name="l.sc" horiz-adv-x="659" 
d="M54 0v580h82v-498h519v-82h-601z" />
    <glyph glyph-name="m.sc" horiz-adv-x="824" 
d="M415 223l249 358h113v-581h-82v505l-280 -398l-279 398v-505h-82v581h110z" />
    <glyph glyph-name="n.sc" horiz-adv-x="708" 
d="M573 92v488h82v-580h-111l-408 489v-489h-82v580h111z" />
    <glyph glyph-name="o.sc" horiz-adv-x="692" 
d="M172 580h348q51 0 86.5 -35.5t35.5 -85.5v-338q0 -50 -35.5 -85.5t-86.5 -35.5h-348q-50 0 -85.5 35.5t-35.5 85.5v338q0 50 35.5 85.5t85.5 35.5zM172 82h348q16 0 27.5 11.5t11.5 27.5v338q0 16 -11.5 27.5t-27.5 11.5h-348q-16 0 -27.5 -11.5t-11.5 -27.5v-338
q0 -16 11.5 -27.5t27.5 -11.5z" />
    <glyph glyph-name="p.sc" horiz-adv-x="660" 
d="M54 580h470q50 0 85.5 -35.5t35.5 -85.5v-130q0 -50 -35.5 -85.5t-85.5 -35.5h-348q-10 0 -40 4v-212h-82v580zM563 329v130q0 16 -11.5 27.5t-27.5 11.5h-348q-16 0 -28 -11.5t-12 -27.5v-130q0 -16 12 -27.5t28 -11.5h348q16 0 27.5 11.5t11.5 27.5z" />
    <glyph glyph-name="q.sc" horiz-adv-x="770" 
d="M638 82h99v-82h-564q-50 0 -85.5 35.5t-35.5 85.5v338q0 50 35.5 85.5t85.5 35.5h348q51 0 86.5 -35.5t35.5 -85.5v-338q0 -1 -5 -39zM173 82h348q16 0 27.5 11.5t11.5 27.5v338q0 16 -11.5 27.5t-27.5 11.5h-348q-16 0 -27.5 -11.5t-11.5 -27.5v-338q0 -16 11.5 -27.5
t27.5 -11.5z" />
    <glyph glyph-name="r.sc" horiz-adv-x="700" 
d="M644 459v-130q0 -50 -35 -85.5t-86 -35.5h-107l231 -208h-105l-228 208h-178v-208h-82v580h469q51 0 86 -35.5t35 -85.5zM175 290h348q16 0 27.5 11.5t11.5 27.5v130q0 16 -11.5 27.5t-27.5 11.5h-348q-16 0 -27.5 -11.5t-11.5 -27.5v-130q0 -16 11.5 -27.5t27.5 -11.5z
" />
    <glyph glyph-name="s.sc" horiz-adv-x="687" 
d="M640 459v-18h-83v18q0 16 -11.5 27.5t-27.5 11.5h-348q-16 0 -27.5 -11.5t-11.5 -27.5v-89q0 -16 11.5 -27.5t27.5 -11.5h348q51 0 86.5 -35.5t35.5 -85.5v-89q0 -50 -35.5 -85.5t-86.5 -35.5h-348q-50 0 -85.5 35.5t-35.5 85.5v18h82v-18q0 -16 11.5 -27.5t27.5 -11.5
h348q16 0 27.5 11.5t11.5 27.5v89q0 16 -11.5 27.5t-27.5 11.5h-348q-50 0 -85.5 35.5t-35.5 85.5v89q0 50 35.5 85.5t85.5 35.5h348q51 0 86.5 -35.5t35.5 -85.5z" />
    <glyph glyph-name="t.sc" horiz-adv-x="644" 
d="M22 580h601v-82h-259v-498h-82v498h-260v82z" />
    <glyph glyph-name="u.sc" horiz-adv-x="695" 
d="M562 121v459h82v-459q0 -50 -35.5 -85.5t-86.5 -35.5h-348q-50 0 -85.5 35.5t-35.5 85.5v459h82v-459q0 -16 11.5 -27.5t27.5 -11.5h348q16 0 28 11.5t12 27.5z" />
    <glyph glyph-name="v.alt" horiz-adv-x="697" 
d="M562 580h82v-580h-470q-50 0 -85.5 35.5t-35.5 85.5v459h82v-459q0 -16 11.5 -27.5t27.5 -11.5h388v498z" />
    <glyph glyph-name="v.sc" horiz-adv-x="801" 
d="M395 81l277 499h96l-326 -580h-94l-327 580h97z" />
    <glyph glyph-name="w.alt" horiz-adv-x="978" 
d="M175 0q-51 0 -86.5 35.5t-35.5 85.5v459h82v-459q0 -16 12 -27.5t28 -11.5h241q16 0 27.5 11.5t11.5 27.5v459h82v-459q0 -16 11.5 -27.5t27.5 -11.5h243q16 0 27.5 11.5t11.5 27.5v459h82v-580h-765z" />
    <glyph glyph-name="w.sc" horiz-adv-x="1078" 
d="M964 580h88l-221 -580h-72l-216 467l-205 -467h-72l-232 580h88l179 -431l192 431h100l203 -430z" />
    <glyph glyph-name="x.alt" horiz-adv-x="698" 
d="M645 580v-210q0 -40 -29 -80q29 -40 29 -80v-210h-82v210q0 16 -11.5 27.5t-27.5 11.5h-348q-16 0 -28 -11.5t-12 -27.5v-210h-82v210q0 40 29 80q-29 40 -29 80v210h82v-210q0 -16 12 -27.5t28 -11.5h348q16 0 27.5 11.5t11.5 27.5v210h82z" />
    <glyph glyph-name="x.sc" horiz-adv-x="692" 
d="M530 580h108l-242 -284l243 -296h-108l-189 233l-188 -233h-108l242 296l-242 284h108l188 -219z" />
    <glyph glyph-name="y.sc" horiz-adv-x="688" 
d="M548 580h97l-272 -380v-200h-83v200l-272 380h96l217 -283z" />
    <glyph glyph-name="z.alt" horiz-adv-x="692" 
d="M172 249q-16 0 -27.5 -11.5t-11.5 -27.5v-89q0 -16 11.5 -27.5t27.5 -11.5h470v-82h-470q-50 0 -85.5 35.5t-35.5 85.5v89q0 50 35.5 85.5t85.5 35.5h348q16 0 27.5 11.5t11.5 27.5v89q0 16 -11.5 27.5t-27.5 11.5h-469v82h469q51 0 86.5 -35.5t35.5 -85.5v-89
q0 -50 -35.5 -85.5t-86.5 -35.5h-348z" />
    <glyph glyph-name="z.sc" horiz-adv-x="698" 
d="M54 498v82h591v-112l-501 -386h501v-82h-591v112l501 386h-501z" />
    </font>
</defs>
</svg>
